<svg width="50" height="50" viewBox="0 0 50 50" fill="none" xmlns="http://www.w3.org/2000/svg">
<g id="Calendar">
<circle id="Oval" opacity="0.33" cx="25" cy="25" r="25" fill="url(#paint0_linear)"/>
<path id="Fill 1" fill-rule="evenodd" clip-rule="evenodd" d="M35.5697 34.7188C35.5697 35.2122 35.1684 35.6145 34.6745 35.6145H15.0642C14.5703 35.6145 14.169 35.2122 14.169 34.7188V17.847H35.5697V34.7188ZM19.5602 14.3442C20.1084 14.3442 20.553 14.7893 20.553 15.3375C20.553 15.8862 20.1084 16.3303 19.5602 16.3303C19.0115 16.3303 18.5669 15.8862 18.5669 15.3375C18.5669 14.7893 19.0115 14.3442 19.5602 14.3442ZM30.2317 14.3522C30.7799 14.3522 31.2245 14.7968 31.2245 15.3455C31.2245 15.8937 30.7799 16.3383 30.2317 16.3383C29.683 16.3383 29.2384 15.8937 29.2384 15.3455C29.2384 14.7968 29.683 14.3522 30.2317 14.3522ZM34.6745 12.5H15.0642C13.6501 12.5 12.5 13.6506 12.5 15.0647V34.7188C12.5 36.1328 13.6501 37.2835 15.0642 37.2835H34.6745C36.0885 37.2835 37.2392 36.1328 37.2392 34.7188V15.0647C37.2392 13.6506 36.0885 12.5 34.6745 12.5Z" fill="#FEFEFE"/>
<path id="8" fill-rule="evenodd" clip-rule="evenodd" d="M24.8733 32.2687C27.3824 32.2687 29.7467 31.2393 29.7467 28.8429C29.7467 27.701 29.039 26.8164 27.9453 26.4143C28.7977 26.0443 29.4893 25.2241 29.4893 24.1304C29.4893 21.8787 27.3502 20.8333 24.8733 20.8333C22.3965 20.8333 20.2573 21.8787 20.2573 24.1304C20.2573 25.2241 20.9328 26.0443 21.7853 26.4143C20.6916 26.8164 20 27.701 20 28.8429C20 31.2393 22.3643 32.2687 24.8733 32.2687ZM24.8733 25.208C24.3426 25.208 24.0692 24.9185 24.0692 24.4521C24.0692 23.9856 24.3426 23.6961 24.8733 23.6961C25.4041 23.6961 25.6775 23.9856 25.6775 24.4521C25.6775 24.9185 25.4041 25.208 24.8733 25.208ZM23.9083 28.4569C23.9083 29.0359 24.3426 29.3254 24.8733 29.3254C25.4041 29.3254 25.8383 29.0359 25.8383 28.4569C25.8383 27.8618 25.4041 27.6045 24.8733 27.6045C24.3426 27.6045 23.9083 27.8618 23.9083 28.4569Z" fill="white"/>
</g>
<defs>
<linearGradient id="paint0_linear" x1="0" y1="0" x2="0" y2="50" gradientUnits="userSpaceOnUse">
<stop stop-color="#2100FF"/>
<stop offset="1" stop-color="#5501D2"/>
</linearGradient>
</defs>
</svg>
