<svg xmlns:xlink="http://www.w3.org/1999/xlink" height="62" viewBox="0 0 42 62" width="42" xmlns="http://www.w3.org/2000/svg"><path d="M6.996 1.29a177.575 177.575 0 0 1 17.262 21.658 172.658 172.658 0 0 1 6.986-10.128c3.236-4.348 9.017 1.747 5.815 6.05a152.72 152.72 0 0 0-7.892 11.75 177.519 177.519 0 0 1 12.467 24.812c2.042 5.011-5.04 9.377-7.101 4.319a176.3 176.3 0 0 0-10.105-20.786 158.21 158.21 0 0 0-8.21 18.222c-1.904 5.072-9.86 2.866-7.93-2.275a171.173 171.173 0 0 1 11.226-24.028A168.128 168.128 0 0 0 1.18 7.339C-2.51 3.388 3.3-2.67 6.996 1.289" fill="#FFFFFF" fill-rule="evenodd"></path></svg>