<svg width="50" height="50" viewBox="0 0 50 50" fill="none" xmlns="http://www.w3.org/2000/svg">
<g id="Pin">
<circle id="Oval Copy 2" opacity="0.33" cx="25" cy="25" r="25" fill="url(#paint0_linear)"/>
<path id="Fill 1" fill-rule="evenodd" clip-rule="evenodd" d="M25.3211 23.7218C23.314 23.7218 21.6855 22.0944 21.6855 20.0873C21.6855 18.0791 23.314 16.4506 25.3211 16.4506C27.3304 16.4506 28.9578 18.0791 28.9578 20.0873C28.9578 22.0944 27.3304 23.7218 25.3211 23.7218ZM33.9767 21.1533C33.9767 16.3741 30.1003 12.5 25.3222 12.5C20.543 12.5 16.6667 16.3741 16.6667 21.1533C16.6667 22.7306 17.0976 24.2061 17.8322 25.4803H17.826L25.3188 37.2477L32.8162 25.4803H32.8077C33.5469 24.2061 33.9767 22.7306 33.9767 21.1533Z" fill="white"/>
</g>
<defs>
<linearGradient id="paint0_linear" x1="0" y1="0" x2="0" y2="50" gradientUnits="userSpaceOnUse">
<stop stop-color="#2100FF"/>
<stop offset="1" stop-color="#5501D2"/>
</linearGradient>
</defs>
</svg>
